<?xml version="1.0" encoding="utf-8"?>
<!-- Generator: Adobe Illustrator 27.3.1, SVG Export Plug-In . SVG Version: 6.00 Build 0)  -->
<svg version="1.1" id="Layer_1" xmlns="http://www.w3.org/2000/svg" xmlns:xlink="http://www.w3.org/1999/xlink" x="0px" y="0px"
	 viewBox="0 0 500 500" style="enable-background:new 0 0 500 500;" xml:space="preserve">
<style type="text/css">
	.st0{fill:#C49A5D;}
</style>
<path class="st0" d="M497.16,297.82c-4.26-18.65-12.96-34.98-26.04-48.91c-2.32-2.47-3.16-4.91-3.15-8.22
	c0.09-50.45,0.16-100.9,0.02-151.35c-0.09-33.41-21.44-60.7-53.29-68.23c-5.48-1.29-11.27-1.79-16.91-1.8
	c-99.1-0.1-198.2-0.11-297.29-0.06c-40.19,0.02-70.29,30.07-70.39,70.4c-0.13,50.94-0.06,101.88,0.03,152.82
	c0.01,3.46-0.89,6.04-3.22,8.71C9.53,271.05,0.36,294.27,0.18,320.66c-0.28,40.03-0.17,80.07-0.05,120.11
	c0.07,22.48,17.33,39.85,39.36,40.01c22.01,0.16,39.37-17.04,39.82-39.51c0.08-3.88,0.01-7.77,0.01-12.04c113.84,0,227.3,0,341.44,0
	c0,3.23,0.13,6.43-0.02,9.62c-1.07,22.61,15.6,39.27,34.05,41.56c21.7,2.69,38.86-9.78,44.48-31.93c0.11-0.44,0.48-0.81,0.74-1.21
	c0-45.25,0-90.49,0-135.74C499.06,306.97,498.2,302.37,497.16,297.82z M49.64,89.56c0.09-25.38,16.11-45.04,40.26-49.89
	c3.48-0.7,7.11-0.87,10.67-0.87c98.93-0.04,197.86-0.08,296.79-0.01c25.97,0.02,45.96,16.54,50.45,41.37
	c0.55,3.02,0.66,6.15,0.66,9.23c0.04,45.57,0.03,91.13,0.02,136.7c0,0.97-0.1,1.93-0.19,3.46c-5.94-2.77-11.43-5.14-16.69-7.95
	c-1.11-0.59-1.89-2.79-1.91-4.26c-0.17-8.95-0.05-17.9-0.09-26.85c-0.14-31.25-21.97-53.7-53.21-54.09
	c-27.82-0.34-55.65-0.1-83.47-0.06c-17.61,0.03-31.63,7.48-42.75,21.39c-1.15-1.21-2.14-2.2-3.07-3.25
	c-9.87-11.15-22.14-17.78-37.08-17.94c-29.93-0.32-59.89-0.64-89.81,0.13c-27.53,0.71-48.77,22.9-49.65,50.45
	c-0.32,10.08-0.19,20.18-0.03,30.27c0.04,2.72-0.89,3.98-3.35,5.05c-5.76,2.5-11.35,5.39-17.31,8.27c-0.11-1.47-0.28-2.72-0.28-3.97
	C49.58,181.02,49.47,135.29,49.64,89.56z M410.09,214.74c-50.58,0-100.14,0-149.43,0c0-11.68-1.15-22.65,0.28-33.28
	c1.91-14.15,14.57-24.66,28.87-25.31c12.5-0.57,25.04-0.27,37.57-0.3c16.1-0.03,32.21-0.12,48.31,0.02
	c20.84,0.18,34.32,13.9,34.4,34.79C410.12,198.93,410.09,207.19,410.09,214.74z M239.99,214.66c-49.89,0-99.59,0-150.63,0
	c0.71-11.45,0.2-23.9,2.55-35.78c2.65-13.38,15-22.55,28.88-22.75c29.6-0.42,59.21-0.49,88.8,0.02
	c15.78,0.27,28.47,12.14,30.19,27.98C240.86,193.9,239.99,203.87,239.99,214.66z M26.63,287.67c16.1-34.49,43.29-53.42,81.41-53.64
	c94.7-0.55,189.41-0.39,284.11-0.1c49.76,0.15,88.12,39.24,88.31,89c0.03,9.09,0,18.19,0,28.11c-2.15,0-4,0-5.86,0
	c-24.14,0-363.51,0-447.8,0c-2.24,0-4.47,0-7.12,0C19.83,329.3,17.24,307.78,26.63,287.67z M59,446.4
	c-2.12,9.88-11.38,15.74-21.66,14.71c-9.59-0.96-17.23-9.07-17.66-18.95c-0.18-4.2-0.03-8.41-0.03-13.13c13.56,0,26.48,0,40.35,0
	C59.71,434.96,60.18,440.86,59,446.4z M19.91,408.95c0-12.61,0-25.21,0-38.39c2.18,0,4.26,0,6.33,0c84.45,0,451.91,0,454.02,0
	c0,13.06,0,25.54,0,38.39C326.87,408.95,173.54,408.95,19.91,408.95z M480.37,442.68c-0.68,10.77-9.71,18.8-20.58,18.56
	c-10.62-0.23-19.05-8.47-19.45-19.16c-0.16-4.19-0.03-8.39-0.03-12.91c13.41,0,26.46,0,40.1,0
	C480.42,433.95,480.65,438.33,480.37,442.68z"/>
</svg>
