<?xml version="1.0" encoding="utf-8"?>
<!-- Generator: Adobe Illustrator 27.3.1, SVG Export Plug-In . SVG Version: 6.00 Build 0)  -->
<svg version="1.1" id="Layer_1" xmlns="http://www.w3.org/2000/svg" xmlns:xlink="http://www.w3.org/1999/xlink" x="0px" y="0px"
	 viewBox="0 0 500 500" style="enable-background:new 0 0 500 500;" xml:space="preserve">
<style type="text/css">
	.st0{fill:#C49A5D;}
</style>
<g>
	<path class="st0" d="M245.11,500c-13.36-2.12-23.41-9.72-32.54-19.15c-7.02-7.24-14.59-13.95-21.69-21.11
		c-4.79-4.83-10.2-6.35-16.86-5.27c-12.36,2-24.75,3.79-37.17,5.34C109.4,463.23,89.53,448,85,420.38
		c-1.95-11.87-4.13-23.7-6.09-35.57c-1.06-6.43-4.39-10.88-10.25-13.87c-11.3-5.75-22.48-11.73-33.62-17.77
		c-23.18-12.57-30.95-36.41-19.61-60.23c5.45-11.44,10.99-22.85,16.72-34.15c3.06-6.02,3.03-11.67-0.02-17.67
		c-5.67-11.15-11.12-22.42-16.53-33.7c-11.63-24.22-3.78-48.15,19.94-60.88c10.88-5.84,21.72-11.79,32.76-17.31
		c6.45-3.23,9.7-8.11,10.8-15.1c1.98-12.52,4.06-25.04,6.58-37.45c5.33-26.21,25.86-40.36,52.26-36.41
		c12.38,1.85,24.78,3.57,37.16,5.41c5.88,0.87,10.85-0.66,15.14-4.87c9.29-9.12,18.65-18.17,28.07-27.16
		c19.05-18.19,44.28-18.2,63.33-0.02c9.18,8.76,18.38,17.52,27.35,26.5c4.95,4.96,10.48,6.47,17.31,5.35
		c12.35-2.01,24.74-3.89,37.17-5.32c27.06-3.12,46.42,11.47,51.31,38.38c2.15,11.83,4.27,23.68,6.1,35.56
		c1.08,6.99,4.33,11.89,10.78,15.12c10.89,5.46,21.57,11.36,32.32,17.1c24.49,13.06,32.21,36.94,20.03,61.96
		c-5.19,10.67-10.21,21.43-15.7,31.93c-3.48,6.65-3.55,12.75-0.07,19.44c5.7,10.95,10.99,22.12,16.3,33.27
		c11.36,23.86,3.64,47.65-19.54,60.24c-11,5.97-22,11.96-33.19,17.54c-6.64,3.31-9.86,8.34-10.97,15.52
		c-1.9,12.37-4.01,24.71-6.5,36.97c-5.37,26.45-26.06,40.61-52.64,36.48c-12.37-1.92-24.78-3.58-37.17-5.38
		c-5.71-0.83-10.55,0.73-14.7,4.81c-7.43,7.3-15.16,14.3-22.41,21.77c-9.14,9.41-19.19,17.02-32.54,19.14
		C251.62,500,248.37,500,245.11,500z M369.73,431.6c8.61,0.2,14.52-4.4,16.02-12.28c2.1-11.01,4.53-22.01,5.76-33.14
		c2.27-20.41,12.17-34.73,30.97-43.29c9.75-4.44,19.02-9.9,28.48-14.95c10.21-5.45,12.45-12.54,7.34-23.08
		c-5.46-11.26-10.87-22.54-16.48-33.72c-7.07-14.08-7.12-28.05-0.09-42.14c5.59-11.2,11.02-22.47,16.49-33.72
		c5.24-10.77,2.99-17.78-7.53-23.39c-11.04-5.89-22.06-11.82-33.17-17.58c-14.36-7.44-22.45-19.16-24.97-35.07
		c-2-12.68-4.33-25.31-6.7-37.93c-1.77-9.44-8.5-14.1-18.06-12.74c-12.39,1.76-24.8,3.44-37.16,5.41
		c-16.46,2.63-30.46-1.75-42.26-13.65c-8.7-8.78-17.72-17.26-26.63-25.83c-7.92-7.62-15.61-7.61-23.54,0.03
		c-9.38,9.03-18.69,18.13-28.07,27.15c-10.19,9.79-22.25,14.48-36.44,12.66c-13.54-1.74-27.06-3.65-40.57-5.64
		c-10.47-1.54-17.13,2.83-19.08,13.14c-2.03,10.7-4.36,21.38-5.6,32.17c-2.32,20.17-12.05,34.45-30.71,42.93
		c-9.89,4.5-19.31,10.05-28.91,15.19c-9.91,5.31-12.21,12.54-7.25,22.75c5.25,10.82,10.35,21.71,15.9,32.38
		c7.89,15.15,7.99,30.06,0.08,45.25c-5.48,10.52-10.49,21.28-15.68,31.94c-5.39,11.07-3.16,17.99,7.63,23.73
		c11.05,5.88,22.07,11.8,33.17,17.58c14.17,7.38,22.19,19.01,24.73,34.71c2.02,12.51,4.26,24.99,6.61,37.45
		c1.97,10.47,8.54,14.94,18.91,13.38c12.38-1.85,24.78-3.54,37.16-5.4c16.29-2.45,30.08,2.3,41.72,13.92
		c8.75,8.74,17.72,17.25,26.64,25.82c7.67,7.36,15.48,7.34,23.18-0.06c8.69-8.34,17.54-16.52,25.92-25.16
		c12.49-12.86,27.26-17.31,44.85-14.17C345.01,428.53,357.8,429.93,369.73,431.6z"/>
	<path class="st0" d="M154.92,359.46c-5.89-0.09-10.34-2.76-12.94-8c-2.51-5.06-2.03-10.12,1.29-14.74
		c1.13-1.57,2.57-2.93,3.95-4.31c61.76-61.78,123.54-123.54,185.29-185.33c3.53-3.53,7.15-6.65,12.54-6.57
		c5.72,0.08,10.03,2.58,12.71,7.58c2.78,5.19,2.35,10.36-1.04,15.16c-1.12,1.58-2.57,2.93-3.94,4.31
		c-61.76,61.78-123.54,123.55-185.3,185.34C163.95,356.42,160.35,359.61,154.92,359.46z"/>
	<path class="st0" d="M192.43,225.85c-29.11,0.09-52.76-23.41-52.88-52.55c-0.12-29,23.46-52.9,52.42-53.11
		c29.05-0.21,53.17,23.78,53.17,52.89C245.14,202.14,221.54,225.76,192.43,225.85z M216.3,173.17
		c0.06-13.16-10.57-23.87-23.77-23.96c-13.43-0.09-24.38,10.79-24.22,24.05c0.15,13.04,11.1,23.9,24.07,23.87
		C205.37,197.11,216.24,186.22,216.3,173.17z"/>
	<path class="st0" d="M360.44,327.17c-0.09,28.94-23.99,52.71-52.91,52.61c-28.92-0.1-52.69-23.98-52.66-52.9
		c0.03-29.3,23.9-52.95,53.2-52.72C337.27,274.38,360.53,297.92,360.44,327.17z M307.51,350.76c13.27,0.07,23.88-10.3,24.16-23.6
		c0.27-13.08-10.91-24.36-24.09-24.3c-13.04,0.06-23.87,10.93-23.89,23.99C283.68,340.04,294.29,350.7,307.51,350.76z"/>
</g>
</svg>
