<?xml version="1.0" encoding="utf-8"?>
<!-- Generator: Adobe Illustrator 27.3.1, SVG Export Plug-In . SVG Version: 6.00 Build 0)  -->
<svg version="1.1" id="Layer_1" xmlns="http://www.w3.org/2000/svg" xmlns:xlink="http://www.w3.org/1999/xlink" x="0px" y="0px"
	 viewBox="0 0 500 500" style="enable-background:new 0 0 500 500;" xml:space="preserve">
<style type="text/css">
	.st0{fill:#C49A5D;}
</style>
<g>
	<path class="st0" d="M316.64,400.49c-1.73,0-3.63-0.29-5.62-0.85c-7.04-2-10.74-5.96-12.36-13.25c-1.47-6.61,0.25-11.78,5.75-17.29
		l4.73-4.74c19.02-19.06,38.03-38.11,57.04-57.17c1.38-1.38,2.62-2.7,4.19-4.37l0.15-0.16c0.76-0.81,1.61-1.71,2.6-2.75l30.6-32.17
		h-54.93c-7.88,0-86.7,0.02-94.58,0.02c-33.51,0-59.36-0.02-83.81-0.06c-8.58-0.01-13.68-3.21-17.03-10.7
		c-3.15-7.03-2.22-12.68,3.12-18.9c3.55-4.14,7.98-5.9,14.82-5.9c28.52,0.04,56.98,0.05,85.44,0.05l149.06-0.01l-32.52-32.51
		c-7.3-7.3-14.47-14.45-21.54-21.49l-0.16-0.16c-16.35-16.29-31.79-31.68-47.27-47.36c-7.43-7.53-8.24-17.51-2-24.83
		c3.57-4.19,8.15-6.41,13.24-6.41c4.81,0,9.6,2.11,13.5,5.95c13.45,13.26,27.03,26.91,40.16,40.12l0.18,0.18
		c5.73,5.76,11.46,11.53,17.21,17.28l20.9,20.93c16.72,16.74,34,34.04,51.22,51.36c9.83,9.89,9.94,19.39,0.33,29.04
		c-38.19,38.36-76.89,77.1-114.31,114.56l-15.43,15.45C323.81,399.86,319.44,400.49,316.64,400.49z"/>
	<path class="st0" d="M133,473.83c-15.9,0-29.94-0.02-42.93-0.07c-15.8-0.06-30.11-5.72-40.29-15.93
		c-10.18-10.22-15.81-24.58-15.85-40.44c-0.11-39.19-0.08-78.86-0.06-117.22c0.01-16.83,0.02-33.65,0.02-50.47l-0.01-47.59
		c-0.01-39.07-0.01-78.14,0.01-117.2c0.03-36.19,22.59-58.67,58.9-58.69c8.47,0,16.95-0.02,25.42-0.03l0.99,0
		c9.69-0.01,19.38-0.03,29.07-0.03c16.68,0,30.27,0.04,42.78,0.12c9.48,0.06,16.75,6.77,17.67,16.3
		c0.85,8.78-5.64,17.04-14.79,18.81c-1.47,0.28-3.96,0.29-6.37,0.29l-0.27,0c-8.76,0.02-17.52,0.02-26.29,0.02l-22.17,0
		c-9.8,0-19.6,0-29.39,0.03c-24.78,0.06-40.17,15.5-40.18,40.3c-0.03,96.95-0.03,196.46,0,295.77
		c0.01,24.92,15.63,40.42,40.78,40.46c6.11,0.01,12.21,0.01,18.32,0.01l35.57-0.01c8.22,0,16.44,0,24.66,0.02
		c6.33,0.01,11.82,2.04,15.45,5.69c3.13,3.15,4.71,7.22,4.69,12.09c-0.04,10.73-8.04,17.67-20.39,17.69l-2.99,0.01
		c-17.45,0.03-34.87,0.06-52.31,0.06H133z"/>
</g>
</svg>
