<?xml version="1.0" encoding="utf-8"?>
<!-- Generator: Adobe Illustrator 27.3.1, SVG Export Plug-In . SVG Version: 6.00 Build 0)  -->
<svg version="1.1" id="Layer_1" xmlns="http://www.w3.org/2000/svg" xmlns:xlink="http://www.w3.org/1999/xlink" x="0px" y="0px"
	 viewBox="0 0 493 271.1" style="enable-background:new 0 0 493 271.1;" xml:space="preserve">
<style type="text/css">
	.st0{fill:#C49A5D;}
</style>
<g>
	<g>
		<path class="st0" d="M154,7c-10.3,10.3-18.9,20.8-25.4,31.3c-2.8,4.5-3.3,10-1.4,14.8c1.8,4.9,5.7,8.6,10.8,10.1
			c28.1,8.5,50.7,27.5,63.6,53.5c12.8,25.8,14.5,56,4.5,83c-7.6,20.5-21.1,37.8-39,50.1c-17.6,12-38,18.4-59.2,18.4
			c-12.6,0-24.8-2.2-36.3-6.6c-26.2-9.7-47.1-29-58.8-54.5C1,181.6-0.1,153.2,9.5,127C21.3,95,44.7,67,79,43.6
			C100.6,29,126.2,16.5,154,7 M165.7,0c-33,10-63.2,24.1-88.4,41.1C42.5,64.8,18.8,93.3,6.7,126c-20.6,55.7,8,117.8,63.8,138.4
			c12,4.5,24.6,6.8,37.4,6.8c21.7,0,42.9-6.5,60.9-18.9c18.5-12.7,32.3-30.4,40.1-51.5c10.2-27.8,8.6-58.9-4.6-85.4
			c-13.3-26.7-36.5-46.2-65.5-55c-4.1-1.3-7.4-4.3-8.9-8.3c-1.6-4-1.1-8.6,1.2-12.1C139.5,26.3,151.2,13,165.7,0L165.7,0z"/>
	</g>
	<g>
		<path class="st0" d="M431.4,7c-10.3,10.3-18.9,20.8-25.4,31.3c-2.8,4.5-3.3,10-1.4,14.8c1.8,4.9,5.7,8.6,10.8,10.1
			c28.1,8.5,50.7,27.5,63.6,53.5c12.8,25.8,14.5,56,4.5,83c-7.6,20.5-21.1,37.8-39,50.1c-17.6,12-38,18.4-59.2,18.4
			c-12.6,0-24.8-2.2-36.3-6.6c-26.2-9.7-47.1-29-58.8-54.5c-11.7-25.4-12.8-53.9-3.2-80.1c11.8-32,35.2-60,69.5-83.4
			C377.9,29,403.6,16.5,431.4,7 M443.2,0c-33,10-63.3,24.1-88.4,41.1C320,64.8,296.2,93.3,284.2,126c-20.6,55.7,8,117.8,63.8,138.4
			c12,4.5,24.6,6.8,37.4,6.8c21.7,0,42.9-6.5,60.9-18.9c18.5-12.7,32.3-30.4,40.1-51.5c10.2-27.8,8.6-58.9-4.6-85.4
			c-13.3-26.7-36.5-46.2-65.5-55c-4.1-1.3-7.4-4.3-8.9-8.3c-1.6-4-1.1-8.6,1.2-12.1C417,26.3,428.6,13,443.2,0L443.2,0z"/>
	</g>
</g>
</svg>
