<?xml version="1.0" encoding="utf-8"?>
<!-- Generator: Adobe Illustrator 27.3.1, SVG Export Plug-In . SVG Version: 6.00 Build 0)  -->
<svg version="1.1" id="Layer_1" xmlns="http://www.w3.org/2000/svg" xmlns:xlink="http://www.w3.org/1999/xlink" x="0px" y="0px"
	 viewBox="0 0 493 288.2" style="enable-background:new 0 0 493 288.2;" xml:space="preserve">
<style type="text/css">
	.st0{fill:#C49A5D;}
</style>
<g>
	<g>
		<path class="st0" d="M190.5,12.9L190.5,12.9L190.5,12.9 M170,18.4c-13.8,12.3-24.8,24.9-32.8,37.7c-2.1,3.4-2.6,7.7-1.1,11.5
			c1.4,3.8,4.5,6.7,8.4,7.9c27.4,8.3,49.4,26.8,62,52.1c12.5,25.1,14.1,54.6,4.4,80.9c-7.4,20-20.5,36.8-38,48.8
			c-17.1,11.7-37.1,17.9-57.7,17.9c-12.1,0-24-2.1-35.4-6.4c-52.8-19.5-79.9-78.3-60.4-131.1c11.4-30.9,33.9-57.9,66.9-80.4
			C110.1,41.2,138.7,27.9,170,18.4 M189.6,0c-0.7,0-1.4,0.1-2.2,0.3C112,18.4,33.7,61.3,7.2,133.2c-22,59.6,8.4,125.8,68,147.8
			c13.2,4.9,26.6,7.2,39.9,7.2c46.8,0,90.8-28.8,108-75.2c22.6-61.1-9.8-130.3-74.8-149.9c11.9-19.1,30.1-35.6,46.2-47.7
			C201.2,10.2,197.2,0,189.6,0L189.6,0z"/>
	</g>
	<g>
		<path class="st0" d="M453.2,12.9L453.2,12.9L453.2,12.9 M432.8,18.4C419,30.7,408,43.3,400,56.1c-2.1,3.4-2.6,7.7-1.1,11.5
			c1.4,3.8,4.5,6.7,8.4,7.9c27.4,8.3,49.4,26.8,62,52.1c12.5,25.1,14.1,54.6,4.4,80.9c-7.4,20-20.5,36.8-38,48.8
			c-17.1,11.7-37.1,17.9-57.7,17.9c-12.1,0-24-2.1-35.4-6.4c-52.8-19.5-79.9-78.3-60.4-131.1c11.4-30.9,33.9-57.9,66.9-80.4
			C372.8,41.2,401.5,27.9,432.8,18.4 M452.4,0c-0.7,0-1.4,0.1-2.2,0.3C374.8,18.4,296.5,61.3,270,133.2c-22,59.6,8.4,125.8,68,147.8
			c13.2,4.9,26.6,7.2,39.9,7.2c46.8,0,90.8-28.8,108-75.2C508.4,151.9,476,82.6,411,63c11.9-19.1,30.1-35.6,46.2-47.7
			C464,10.2,460,0,452.4,0L452.4,0z"/>
	</g>
</g>
</svg>
