<?xml version="1.0" encoding="utf-8"?>
<!-- Generator: Adobe Illustrator 27.3.1, SVG Export Plug-In . SVG Version: 6.00 Build 0)  -->
<svg version="1.1" id="Layer_1" xmlns="http://www.w3.org/2000/svg" xmlns:xlink="http://www.w3.org/1999/xlink" x="0px" y="0px"
	 viewBox="0 0 500 80.16" style="enable-background:new 0 0 500 80.16;" xml:space="preserve">
<style type="text/css">
	.st0{fill:#FFFFFF;}
</style>
<g>
	<g>
		<g>
			<path class="st0" d="M37.3,0.31v44.36h-8.56V25.74H8.62v18.93H0V0.31h8.62v17.93h20.12V0.31H37.3z"/>
			<path class="st0" d="M65.48,44.99c-3.25,0-6.2-0.64-8.84-1.91c-2.65-1.27-4.92-2.96-6.81-5.06c-1.9-2.1-3.36-4.51-4.4-7.22
				c-1.04-2.71-1.56-5.48-1.56-8.31c0-2.96,0.55-5.79,1.66-8.5c1.1-2.71,2.62-5.1,4.56-7.19c1.94-2.08,4.24-3.74,6.9-4.97
				C59.65,0.61,62.55,0,65.67,0c3.21,0,6.13,0.66,8.78,1.97C77.1,3.28,79.36,5,81.23,7.12c1.88,2.12,3.33,4.54,4.37,7.25
				c1.04,2.71,1.56,5.46,1.56,8.25c0,2.96-0.54,5.78-1.63,8.47s-2.58,5.06-4.5,7.12c-1.92,2.06-4.21,3.71-6.87,4.94
				C71.5,44.37,68.61,44.99,65.48,44.99z M52.61,22.49c0,1.92,0.29,3.77,0.87,5.56c0.58,1.79,1.43,3.37,2.53,4.75
				c1.1,1.37,2.46,2.48,4.06,3.31c1.6,0.83,3.43,1.25,5.47,1.25c2.08,0,3.93-0.43,5.53-1.28c1.6-0.85,2.96-1.99,4.06-3.41
				c1.1-1.42,1.94-3.01,2.5-4.78c0.56-1.77,0.84-3.57,0.84-5.41c0-1.92-0.3-3.77-0.91-5.56s-1.46-3.37-2.56-4.75
				c-1.1-1.37-2.46-2.47-4.06-3.28c-1.6-0.81-3.41-1.22-5.41-1.22c-2.08,0-3.94,0.43-5.56,1.28c-1.63,0.85-2.98,1.98-4.06,3.37
				c-1.08,1.4-1.91,2.98-2.47,4.75C52.89,18.86,52.61,20.66,52.61,22.49z"/>
			<path class="st0" d="M124.91,7.87h-14.18v36.8h-8.56V7.87H87.98V0.31h36.93V7.87z"/>
			<path class="st0" d="M161.21,37.12v7.56h-30.8V0.31h30.24v7.56h-21.62v10.69h18.68v7h-18.68v11.56H161.21z"/>
			<path class="st0" d="M167.96,44.68V0.31h8.62v36.8h22.62v7.56H167.96z"/>
			<path class="st0" d="M253.5,33.24c0,1.87-0.37,3.52-1.12,4.94c-0.75,1.42-1.78,2.6-3.09,3.56c-1.31,0.96-2.83,1.69-4.56,2.19
				c-1.73,0.5-3.57,0.75-5.53,0.75h-21.43V0.31h23.74c1.54,0,2.94,0.33,4.19,1c1.25,0.67,2.31,1.53,3.19,2.59
				c0.87,1.06,1.55,2.27,2.03,3.62c0.48,1.35,0.72,2.72,0.72,4.09c0,2.17-0.54,4.2-1.63,6.09s-2.67,3.3-4.75,4.22
				c2.54,0.75,4.55,2.09,6.03,4.03C252.76,27.9,253.5,30.33,253.5,33.24z M226.38,7.68v11.19h11.5c1.46,0,2.7-0.5,3.72-1.5
				c1.02-1,1.53-2.37,1.53-4.12c0-1.71-0.47-3.06-1.41-4.06c-0.94-1-2.09-1.5-3.47-1.5H226.38z M244.81,31.62
				c0-0.79-0.14-1.55-0.41-2.28c-0.27-0.73-0.64-1.36-1.09-1.91c-0.46-0.54-1-0.97-1.62-1.28c-0.63-0.31-1.31-0.47-2.06-0.47h-13.25
				v11.69h12.81c0.79,0,1.53-0.15,2.22-0.44c0.69-0.29,1.28-0.7,1.78-1.22c0.5-0.52,0.89-1.13,1.19-1.84
				C244.67,33.16,244.81,32.41,244.81,31.62z"/>
			<path class="st0" d="M279.18,44.99c-3.25,0-6.2-0.64-8.84-1.91c-2.65-1.27-4.92-2.96-6.81-5.06c-1.9-2.1-3.36-4.51-4.4-7.22
				c-1.04-2.71-1.56-5.48-1.56-8.31c0-2.96,0.55-5.79,1.66-8.5c1.1-2.71,2.62-5.1,4.56-7.19c1.94-2.08,4.24-3.74,6.9-4.97
				c2.66-1.23,5.56-1.84,8.69-1.84c3.21,0,6.13,0.66,8.78,1.97c2.64,1.31,4.91,3.03,6.78,5.16c1.88,2.12,3.33,4.54,4.37,7.25
				c1.04,2.71,1.56,5.46,1.56,8.25c0,2.96-0.54,5.78-1.63,8.47c-1.08,2.69-2.58,5.06-4.5,7.12c-1.92,2.06-4.21,3.71-6.87,4.94
				C285.2,44.37,282.3,44.99,279.18,44.99z M266.31,22.49c0,1.92,0.29,3.77,0.87,5.56c0.58,1.79,1.43,3.37,2.53,4.75
				c1.1,1.37,2.46,2.48,4.06,3.31c1.6,0.83,3.43,1.25,5.47,1.25c2.08,0,3.93-0.43,5.53-1.28c1.6-0.85,2.96-1.99,4.06-3.41
				c1.1-1.42,1.94-3.01,2.5-4.78c0.56-1.77,0.84-3.57,0.84-5.41c0-1.92-0.3-3.77-0.91-5.56s-1.46-3.37-2.56-4.75
				c-1.1-1.37-2.46-2.47-4.06-3.28c-1.6-0.81-3.41-1.22-5.41-1.22c-2.08,0-3.94,0.43-5.56,1.28c-1.63,0.85-2.98,1.98-4.06,3.37
				c-1.08,1.4-1.91,2.98-2.47,4.75C266.59,18.86,266.31,20.66,266.31,22.49z"/>
			<path class="st0" d="M326.42,44.99c-3.25,0-6.2-0.64-8.84-1.91c-2.65-1.27-4.92-2.96-6.81-5.06c-1.9-2.1-3.36-4.51-4.4-7.22
				c-1.04-2.71-1.56-5.48-1.56-8.31c0-2.96,0.55-5.79,1.66-8.5c1.1-2.71,2.62-5.1,4.56-7.19c1.94-2.08,4.24-3.74,6.9-4.97
				c2.66-1.23,5.56-1.84,8.69-1.84c3.21,0,6.13,0.66,8.78,1.97c2.64,1.31,4.91,3.03,6.78,5.16c1.88,2.12,3.33,4.54,4.37,7.25
				c1.04,2.71,1.56,5.46,1.56,8.25c0,2.96-0.54,5.78-1.63,8.47c-1.08,2.69-2.58,5.06-4.5,7.12c-1.92,2.06-4.21,3.71-6.87,4.94
				C332.44,44.37,329.54,44.99,326.42,44.99z M313.55,22.49c0,1.92,0.29,3.77,0.87,5.56c0.58,1.79,1.43,3.37,2.53,4.75
				c1.1,1.37,2.46,2.48,4.06,3.31c1.6,0.83,3.43,1.25,5.47,1.25c2.08,0,3.93-0.43,5.53-1.28c1.6-0.85,2.96-1.99,4.06-3.41
				c1.1-1.42,1.94-3.01,2.5-4.78c0.56-1.77,0.84-3.57,0.84-5.41c0-1.92-0.3-3.77-0.91-5.56c-0.6-1.79-1.46-3.37-2.56-4.75
				c-1.1-1.37-2.46-2.47-4.06-3.28c-1.6-0.81-3.41-1.22-5.41-1.22c-2.08,0-3.94,0.43-5.56,1.28c-1.63,0.85-2.98,1.98-4.06,3.37
				c-1.08,1.4-1.91,2.98-2.47,4.75C313.83,18.86,313.55,20.66,313.55,22.49z"/>
			<path class="st0" d="M354.72,44.68V0.37h8.62v21.06l18.62-21.12h9.5l-17,19.68l18.06,24.68h-9.69l-13.81-19.18l-5.69,5.94v13.25
				H354.72z"/>
			<path class="st0" d="M396.53,44.68V0.31h8.62v44.36H396.53z"/>
			<path class="st0" d="M423.02,16.25v28.43h-8.62V0.31h6.69l23.12,29.12V0.37h8.62v44.3h-7L423.02,16.25z"/>
			<path class="st0" d="M492.88,39.68c-3.54,3.54-7.66,5.31-12.37,5.31c-2.92,0-5.66-0.58-8.22-1.75c-2.56-1.17-4.79-2.77-6.69-4.81
				c-1.9-2.04-3.4-4.45-4.5-7.22c-1.1-2.77-1.66-5.76-1.66-8.97c0-3.04,0.55-5.9,1.66-8.59c1.1-2.69,2.62-5.04,4.56-7.06
				c1.94-2.02,4.22-3.62,6.84-4.81c2.62-1.19,5.48-1.78,8.56-1.78c4.17,0,7.74,0.87,10.72,2.62c2.98,1.75,5.22,4.1,6.72,7.06
				l-6.44,4.75c-1.12-2.21-2.7-3.89-4.72-5.06c-2.02-1.17-4.22-1.75-6.59-1.75c-1.88,0-3.59,0.4-5.16,1.19
				c-1.56,0.79-2.9,1.87-4,3.25s-1.96,2.96-2.56,4.75c-0.6,1.79-0.91,3.69-0.91,5.69c0,2.08,0.33,4.03,1,5.84
				c0.67,1.81,1.58,3.38,2.75,4.72c1.17,1.33,2.55,2.39,4.15,3.16c1.6,0.77,3.34,1.16,5.22,1.16c4.29,0,8.17-2.02,11.62-6.06v-3.12
				h-8.94v-6.31H500v22.81h-7.12V39.68z"/>
		</g>
	</g>
	<g>
		<g>
			<path class="st0" d="M119.19,80.16c-0.98,0-1.9-0.26-2.75-0.77c-0.85-0.51-1.52-1.18-2.01-1.98v2.51h-1.11V62.28h1.21v7.81
				c0.6-0.87,1.3-1.58,2.11-2.13c0.81-0.55,1.75-0.82,2.82-0.82c0.89,0,1.69,0.19,2.41,0.57c0.72,0.38,1.32,0.88,1.81,1.5
				c0.49,0.62,0.87,1.32,1.14,2.1c0.27,0.78,0.4,1.58,0.4,2.38c0,0.87-0.15,1.7-0.46,2.48c-0.31,0.78-0.73,1.47-1.27,2.06
				c-0.54,0.59-1.18,1.06-1.91,1.41C120.84,79.99,120.04,80.16,119.19,80.16z M118.95,79.08c0.74,0,1.42-0.15,2.03-0.46
				c0.61-0.31,1.14-0.71,1.58-1.22c0.44-0.51,0.79-1.08,1.04-1.73c0.25-0.64,0.37-1.31,0.37-1.98c0-0.71-0.12-1.39-0.35-2.04
				c-0.23-0.65-0.56-1.23-0.99-1.74c-0.43-0.51-0.94-0.92-1.52-1.22c-0.59-0.31-1.24-0.46-1.95-0.46c-0.53,0-1.03,0.09-1.5,0.28
				c-0.47,0.18-0.9,0.43-1.29,0.74c-0.4,0.31-0.75,0.66-1.06,1.06c-0.32,0.4-0.58,0.82-0.79,1.26v4.16
				c0.05,0.47,0.23,0.91,0.53,1.32c0.31,0.41,0.67,0.77,1.1,1.06c0.43,0.3,0.89,0.54,1.39,0.71
				C118.05,78.99,118.51,79.08,118.95,79.08z"/>
			<path class="st0" d="M132,80.16c-2.67,0-4.01-1.85-4.01-5.56v-7.25h1.21v7.08c0,3.09,1.05,4.64,3.17,4.64
				c0.53,0,1.05-0.09,1.55-0.28c0.5-0.18,0.97-0.44,1.4-0.77c0.44-0.33,0.82-0.73,1.15-1.2c0.33-0.47,0.59-0.98,0.79-1.55v-7.93
				h1.21v10.88c0,0.4,0.17,0.6,0.51,0.6v1.09c-0.08,0.02-0.15,0.02-0.22,0.02c-0.07,0-0.11,0-0.15,0c-0.32,0-0.61-0.1-0.86-0.3
				c-0.25-0.2-0.37-0.47-0.37-0.81v-1.88c-0.55,1.01-1.3,1.81-2.26,2.37C134.15,79.88,133.11,80.16,132,80.16z"/>
			<path class="st0" d="M146.28,80.16c-0.97,0-1.89-0.16-2.78-0.48c-0.89-0.32-1.66-0.8-2.32-1.45l0.6-0.82
				c0.68,0.61,1.38,1.06,2.1,1.35c0.73,0.29,1.52,0.44,2.39,0.44c1.1,0,1.98-0.23,2.65-0.69c0.67-0.46,1-1.1,1-1.92
				c0-0.39-0.08-0.71-0.25-0.98c-0.17-0.27-0.42-0.49-0.76-0.68c-0.34-0.19-0.76-0.35-1.26-0.5c-0.5-0.15-1.08-0.3-1.74-0.46
				c-0.71-0.16-1.33-0.32-1.85-0.48c-0.52-0.16-0.95-0.35-1.29-0.58c-0.34-0.23-0.59-0.5-0.76-0.82c-0.17-0.32-0.25-0.73-0.25-1.23
				c0-0.63,0.12-1.18,0.36-1.64c0.24-0.47,0.57-0.85,1-1.16c0.43-0.31,0.92-0.54,1.47-0.69s1.15-0.23,1.78-0.23
				c0.98,0,1.85,0.17,2.61,0.5c0.76,0.33,1.35,0.75,1.77,1.27l-0.68,0.65c-0.42-0.48-0.96-0.85-1.63-1.09
				c-0.67-0.24-1.38-0.36-2.14-0.36c-0.47,0-0.91,0.05-1.32,0.14c-0.41,0.1-0.77,0.25-1.08,0.46c-0.31,0.21-0.55,0.48-0.72,0.81
				c-0.18,0.33-0.27,0.72-0.27,1.17c0,0.37,0.06,0.67,0.18,0.89c0.12,0.23,0.31,0.42,0.58,0.58c0.27,0.16,0.61,0.3,1.03,0.42
				c0.42,0.12,0.92,0.25,1.5,0.4c0.79,0.19,1.49,0.38,2.1,0.56c0.61,0.18,1.12,0.39,1.54,0.65c0.41,0.26,0.73,0.56,0.94,0.92
				c0.22,0.36,0.33,0.81,0.33,1.35c0,1.13-0.44,2.03-1.32,2.7C148.92,79.83,147.75,80.16,146.28,80.16z"/>
			<path class="st0" d="M153.92,64.5v-2.22h1.21v2.22H153.92z M153.92,79.92V67.35h1.21v12.57H153.92z"/>
			<path class="st0" d="M169.2,79.92h-1.21v-7.01c0-1.63-0.23-2.81-0.69-3.55c-0.46-0.74-1.19-1.11-2.19-1.11
				c-0.53,0-1.06,0.1-1.58,0.29c-0.52,0.19-1.01,0.47-1.46,0.82c-0.45,0.35-0.85,0.77-1.18,1.24c-0.34,0.48-0.59,0.99-0.75,1.54
				v7.78h-1.21V67.35h1.14v3c0.26-0.48,0.58-0.92,0.95-1.32s0.81-0.73,1.28-1.02c0.47-0.28,0.98-0.5,1.51-0.65s1.08-0.23,1.64-0.23
				c1.37,0,2.34,0.48,2.9,1.44c0.56,0.96,0.85,2.33,0.85,4.12V79.92z"/>
			<path class="st0" d="M178.19,80.16c-0.89,0-1.71-0.17-2.46-0.52c-0.76-0.35-1.41-0.82-1.97-1.43c-0.56-0.6-0.99-1.3-1.31-2.09
				s-0.47-1.64-0.47-2.54c0-0.89,0.16-1.72,0.47-2.5c0.31-0.78,0.75-1.47,1.29-2.05c0.55-0.59,1.2-1.05,1.95-1.39
				c0.75-0.34,1.56-0.51,2.43-0.51c0.89,0,1.71,0.17,2.47,0.52c0.76,0.35,1.41,0.81,1.96,1.4c0.55,0.59,0.97,1.27,1.28,2.05
				c0.31,0.78,0.46,1.61,0.46,2.48c0,0.08,0,0.18,0,0.3s-0.01,0.2-0.02,0.23h-11.02c0.05,0.72,0.22,1.4,0.51,2.02
				c0.29,0.62,0.66,1.16,1.1,1.61c0.44,0.45,0.95,0.81,1.53,1.06c0.58,0.26,1.2,0.39,1.86,0.39c0.44,0,0.86-0.06,1.28-0.18
				c0.42-0.12,0.81-0.29,1.17-0.5c0.36-0.21,0.68-0.46,0.97-0.76c0.28-0.3,0.5-0.62,0.67-0.98l1.06,0.29
				c-0.18,0.45-0.44,0.87-0.78,1.24c-0.35,0.38-0.75,0.71-1.21,0.98c-0.46,0.27-0.96,0.49-1.51,0.64
				C179.33,80.09,178.77,80.16,178.19,80.16z M183.12,73.16c-0.05-0.74-0.21-1.42-0.5-2.03c-0.28-0.61-0.64-1.14-1.09-1.58
				c-0.44-0.44-0.95-0.79-1.53-1.04c-0.58-0.25-1.2-0.37-1.86-0.37c-0.66,0-1.28,0.12-1.86,0.37c-0.58,0.25-1.09,0.6-1.54,1.04
				c-0.44,0.44-0.8,0.97-1.06,1.59c-0.27,0.62-0.42,1.29-0.47,2.02H183.12z"/>
			<path class="st0" d="M190.92,80.16c-0.97,0-1.89-0.16-2.78-0.48c-0.89-0.32-1.66-0.8-2.32-1.45l0.6-0.82
				c0.68,0.61,1.38,1.06,2.1,1.35c0.73,0.29,1.52,0.44,2.39,0.44c1.1,0,1.98-0.23,2.65-0.69c0.67-0.46,1-1.1,1-1.92
				c0-0.39-0.08-0.71-0.25-0.98c-0.17-0.27-0.42-0.49-0.76-0.68c-0.34-0.19-0.76-0.35-1.26-0.5c-0.5-0.15-1.08-0.3-1.74-0.46
				c-0.71-0.16-1.33-0.32-1.85-0.48c-0.52-0.16-0.95-0.35-1.29-0.58c-0.34-0.23-0.59-0.5-0.76-0.82c-0.17-0.32-0.25-0.73-0.25-1.23
				c0-0.63,0.12-1.18,0.36-1.64c0.24-0.47,0.57-0.85,1-1.16c0.43-0.31,0.92-0.54,1.47-0.69c0.56-0.15,1.15-0.23,1.78-0.23
				c0.98,0,1.85,0.17,2.61,0.5c0.76,0.33,1.35,0.75,1.77,1.27l-0.68,0.65c-0.42-0.48-0.96-0.85-1.63-1.09
				c-0.67-0.24-1.38-0.36-2.14-0.36c-0.47,0-0.91,0.05-1.32,0.14c-0.41,0.1-0.77,0.25-1.08,0.46c-0.31,0.21-0.55,0.48-0.72,0.81
				c-0.18,0.33-0.27,0.72-0.27,1.17c0,0.37,0.06,0.67,0.18,0.89c0.12,0.23,0.31,0.42,0.58,0.58c0.27,0.16,0.61,0.3,1.03,0.42
				c0.42,0.12,0.92,0.25,1.5,0.4c0.79,0.19,1.49,0.38,2.1,0.56c0.61,0.18,1.12,0.39,1.54,0.65c0.41,0.26,0.73,0.56,0.94,0.92
				c0.22,0.36,0.33,0.81,0.33,1.35c0,1.13-0.44,2.03-1.32,2.7C193.56,79.83,192.39,80.16,190.92,80.16z"/>
			<path class="st0" d="M202.55,80.16c-0.97,0-1.89-0.16-2.78-0.48c-0.89-0.32-1.66-0.8-2.32-1.45l0.6-0.82
				c0.68,0.61,1.38,1.06,2.1,1.35c0.73,0.29,1.52,0.44,2.39,0.44c1.1,0,1.98-0.23,2.65-0.69c0.67-0.46,1-1.1,1-1.92
				c0-0.39-0.08-0.71-0.25-0.98c-0.17-0.27-0.42-0.49-0.76-0.68c-0.34-0.19-0.76-0.35-1.26-0.5c-0.5-0.15-1.08-0.3-1.74-0.46
				c-0.71-0.16-1.33-0.32-1.85-0.48c-0.52-0.16-0.95-0.35-1.29-0.58c-0.34-0.23-0.59-0.5-0.76-0.82c-0.17-0.32-0.25-0.73-0.25-1.23
				c0-0.63,0.12-1.18,0.36-1.64c0.24-0.47,0.57-0.85,1-1.16c0.43-0.31,0.92-0.54,1.47-0.69c0.56-0.15,1.15-0.23,1.78-0.23
				c0.98,0,1.85,0.17,2.61,0.5c0.76,0.33,1.35,0.75,1.77,1.27l-0.68,0.65c-0.42-0.48-0.96-0.85-1.63-1.09
				c-0.67-0.24-1.38-0.36-2.14-0.36c-0.47,0-0.91,0.05-1.32,0.14c-0.41,0.1-0.77,0.25-1.08,0.46c-0.31,0.21-0.55,0.48-0.72,0.81
				c-0.18,0.33-0.27,0.72-0.27,1.17c0,0.37,0.06,0.67,0.18,0.89c0.12,0.23,0.31,0.42,0.58,0.58c0.27,0.16,0.61,0.3,1.03,0.42
				c0.42,0.12,0.92,0.25,1.5,0.4c0.79,0.19,1.49,0.38,2.1,0.56c0.61,0.18,1.12,0.39,1.54,0.65c0.41,0.26,0.73,0.56,0.94,0.92
				c0.22,0.36,0.33,0.81,0.33,1.35c0,1.13-0.44,2.03-1.32,2.7C205.19,79.83,204.01,80.16,202.55,80.16z"/>
			<path class="st0" d="M215.46,80.16c-0.89,0-1.7-0.17-2.45-0.52c-0.75-0.35-1.4-0.82-1.95-1.41c-0.55-0.6-0.97-1.29-1.28-2.08
				c-0.31-0.79-0.46-1.62-0.46-2.49c0-0.89,0.16-1.72,0.47-2.51c0.31-0.79,0.75-1.48,1.29-2.08c0.55-0.6,1.2-1.07,1.95-1.41
				c0.75-0.35,1.56-0.52,2.43-0.52c0.87,0,1.68,0.17,2.42,0.52c0.74,0.35,1.39,0.82,1.95,1.41c0.56,0.6,0.99,1.29,1.31,2.08
				c0.31,0.79,0.47,1.63,0.47,2.51c0,0.87-0.16,1.7-0.47,2.49c-0.31,0.79-0.75,1.48-1.29,2.08c-0.55,0.6-1.2,1.07-1.95,1.41
				C217.13,79.99,216.33,80.16,215.46,80.16z M210.53,73.71c0,0.74,0.13,1.44,0.39,2.09c0.26,0.65,0.61,1.22,1.05,1.7
				c0.44,0.48,0.96,0.87,1.56,1.15c0.6,0.28,1.23,0.42,1.91,0.42s1.31-0.14,1.91-0.42c0.6-0.28,1.12-0.67,1.57-1.17
				c0.45-0.5,0.81-1.08,1.06-1.73c0.26-0.65,0.39-1.36,0.39-2.11c0-0.74-0.13-1.44-0.39-2.09c-0.26-0.65-0.61-1.22-1.06-1.72
				c-0.45-0.49-0.97-0.88-1.56-1.17c-0.59-0.29-1.22-0.44-1.9-0.44c-0.68,0-1.31,0.15-1.91,0.44c-0.6,0.29-1.12,0.68-1.56,1.18
				c-0.44,0.5-0.8,1.08-1.06,1.75C210.66,72.27,210.53,72.97,210.53,73.71z"/>
			<path class="st0" d="M234.77,79.92h-1.21v-7.01c0-1.63-0.23-2.81-0.69-3.55c-0.46-0.74-1.19-1.11-2.19-1.11
				c-0.53,0-1.06,0.1-1.58,0.29c-0.52,0.19-1.01,0.47-1.46,0.82c-0.45,0.35-0.85,0.77-1.18,1.24c-0.34,0.48-0.59,0.99-0.75,1.54
				v7.78h-1.21V67.35h1.14v3c0.26-0.48,0.58-0.92,0.95-1.32s0.81-0.73,1.28-1.02c0.47-0.28,0.98-0.5,1.51-0.65s1.08-0.23,1.64-0.23
				c1.37,0,2.34,0.48,2.9,1.44c0.56,0.96,0.85,2.33,0.85,4.12V79.92z"/>
			<path class="st0" d="M238.51,62.28h1.23v15.15c0,0.47,0.13,0.84,0.4,1.11c0.27,0.27,0.63,0.41,1.1,0.41
				c0.18,0,0.39-0.02,0.64-0.06c0.25-0.04,0.48-0.1,0.69-0.18l0.24,0.97c-0.27,0.11-0.61,0.21-1.01,0.28
				c-0.4,0.07-0.75,0.11-1.04,0.11c-0.68,0-1.22-0.21-1.63-0.62c-0.41-0.41-0.62-0.96-0.62-1.65V62.28z"/>
			<path class="st0" d="M244.68,64.5v-2.22h1.21v2.22H244.68z M244.68,79.92V67.35h1.21v12.57H244.68z"/>
			<path class="st0" d="M259.95,79.92h-1.21v-7.01c0-1.63-0.23-2.81-0.69-3.55c-0.46-0.74-1.19-1.11-2.19-1.11
				c-0.53,0-1.06,0.1-1.58,0.29c-0.52,0.19-1.01,0.47-1.46,0.82c-0.45,0.35-0.85,0.77-1.18,1.24c-0.34,0.48-0.59,0.99-0.75,1.54
				v7.78h-1.21V67.35h1.14v3c0.26-0.48,0.58-0.92,0.95-1.32s0.81-0.73,1.28-1.02c0.47-0.28,0.98-0.5,1.51-0.65
				c0.53-0.15,1.08-0.23,1.64-0.23c1.37,0,2.34,0.48,2.9,1.44c0.56,0.96,0.85,2.33,0.85,4.12V79.92z"/>
			<path class="st0" d="M268.94,80.16c-0.89,0-1.71-0.17-2.46-0.52c-0.76-0.35-1.41-0.82-1.97-1.43c-0.56-0.6-0.99-1.3-1.31-2.09
				c-0.31-0.79-0.47-1.64-0.47-2.54c0-0.89,0.16-1.72,0.47-2.5c0.31-0.78,0.75-1.47,1.29-2.05c0.55-0.59,1.2-1.05,1.95-1.39
				c0.75-0.34,1.56-0.51,2.43-0.51c0.89,0,1.71,0.17,2.47,0.52c0.76,0.35,1.41,0.81,1.96,1.4c0.55,0.59,0.97,1.27,1.28,2.05
				c0.31,0.78,0.46,1.61,0.46,2.48c0,0.08,0,0.18,0,0.3s-0.01,0.2-0.02,0.23h-11.02c0.05,0.72,0.22,1.4,0.51,2.02
				c0.29,0.62,0.66,1.16,1.1,1.61c0.44,0.45,0.95,0.81,1.53,1.06c0.58,0.26,1.2,0.39,1.86,0.39c0.44,0,0.86-0.06,1.28-0.18
				c0.42-0.12,0.81-0.29,1.17-0.5c0.36-0.21,0.68-0.46,0.97-0.76c0.28-0.3,0.5-0.62,0.67-0.98l1.06,0.29
				c-0.18,0.45-0.44,0.87-0.78,1.24c-0.35,0.38-0.75,0.71-1.21,0.98c-0.46,0.27-0.96,0.49-1.51,0.64
				C270.08,80.09,269.52,80.16,268.94,80.16z M273.87,73.16c-0.05-0.74-0.21-1.42-0.5-2.03c-0.28-0.61-0.64-1.14-1.09-1.58
				c-0.44-0.44-0.95-0.79-1.53-1.04c-0.58-0.25-1.2-0.37-1.86-0.37c-0.66,0-1.28,0.12-1.86,0.37c-0.58,0.25-1.09,0.6-1.54,1.04
				c-0.44,0.44-0.8,0.97-1.06,1.59c-0.27,0.62-0.42,1.29-0.47,2.02H273.87z"/>
			<path class="st0" d="M281.68,80.16c-0.97,0-1.89-0.16-2.78-0.48c-0.89-0.32-1.66-0.8-2.32-1.45l0.6-0.82
				c0.68,0.61,1.38,1.06,2.1,1.35c0.73,0.29,1.52,0.44,2.39,0.44c1.1,0,1.98-0.23,2.65-0.69c0.67-0.46,1-1.1,1-1.92
				c0-0.39-0.08-0.71-0.25-0.98c-0.17-0.27-0.42-0.49-0.76-0.68c-0.34-0.19-0.76-0.35-1.26-0.5c-0.5-0.15-1.08-0.3-1.74-0.46
				c-0.71-0.16-1.33-0.32-1.85-0.48c-0.52-0.16-0.95-0.35-1.29-0.58c-0.34-0.23-0.59-0.5-0.76-0.82c-0.17-0.32-0.25-0.73-0.25-1.23
				c0-0.63,0.12-1.18,0.36-1.64c0.24-0.47,0.57-0.85,1-1.16c0.43-0.31,0.92-0.54,1.47-0.69c0.56-0.15,1.15-0.23,1.78-0.23
				c0.98,0,1.85,0.17,2.61,0.5c0.76,0.33,1.35,0.75,1.77,1.27l-0.68,0.65c-0.42-0.48-0.96-0.85-1.63-1.09
				c-0.67-0.24-1.38-0.36-2.14-0.36c-0.47,0-0.91,0.05-1.32,0.14c-0.41,0.1-0.77,0.25-1.08,0.46c-0.31,0.21-0.55,0.48-0.72,0.81
				c-0.18,0.33-0.27,0.72-0.27,1.17c0,0.37,0.06,0.67,0.18,0.89c0.12,0.23,0.31,0.42,0.58,0.58c0.27,0.16,0.61,0.3,1.03,0.42
				c0.42,0.12,0.92,0.25,1.5,0.4c0.79,0.19,1.49,0.38,2.1,0.56c0.61,0.18,1.12,0.39,1.54,0.65c0.41,0.26,0.73,0.56,0.94,0.92
				c0.22,0.36,0.33,0.81,0.33,1.35c0,1.13-0.44,2.03-1.32,2.7C284.32,79.83,283.14,80.16,281.68,80.16z"/>
			<path class="st0" d="M294.58,80.16c-0.89,0-1.7-0.17-2.45-0.52c-0.75-0.35-1.4-0.82-1.95-1.41c-0.55-0.6-0.97-1.29-1.28-2.08
				c-0.31-0.79-0.46-1.62-0.46-2.49c0-0.89,0.16-1.72,0.47-2.51c0.31-0.79,0.75-1.48,1.29-2.08c0.55-0.6,1.2-1.07,1.95-1.41
				c0.75-0.35,1.56-0.52,2.43-0.52c0.87,0,1.68,0.17,2.42,0.52c0.74,0.35,1.39,0.82,1.95,1.41c0.56,0.6,0.99,1.29,1.31,2.08
				c0.31,0.79,0.47,1.63,0.47,2.51c0,0.87-0.16,1.7-0.47,2.49c-0.31,0.79-0.75,1.48-1.29,2.08c-0.55,0.6-1.2,1.07-1.95,1.41
				C296.26,79.99,295.45,80.16,294.58,80.16z M289.65,73.71c0,0.74,0.13,1.44,0.39,2.09c0.26,0.65,0.61,1.22,1.05,1.7
				s0.96,0.87,1.56,1.15c0.6,0.28,1.23,0.42,1.91,0.42c0.68,0,1.31-0.14,1.91-0.42c0.6-0.28,1.12-0.67,1.57-1.17
				c0.45-0.5,0.81-1.08,1.06-1.73c0.26-0.65,0.39-1.36,0.39-2.11c0-0.74-0.13-1.44-0.39-2.09c-0.26-0.65-0.61-1.22-1.06-1.72
				c-0.45-0.49-0.97-0.88-1.56-1.17c-0.59-0.29-1.22-0.44-1.9-0.44c-0.68,0-1.31,0.15-1.91,0.44c-0.6,0.29-1.12,0.68-1.56,1.18
				c-0.44,0.5-0.8,1.08-1.06,1.75C289.79,72.27,289.65,72.97,289.65,73.71z"/>
			<path class="st0" d="M303.72,62.28h1.23v15.15c0,0.47,0.13,0.84,0.4,1.11c0.27,0.27,0.63,0.41,1.1,0.41
				c0.18,0,0.39-0.02,0.64-0.06c0.25-0.04,0.48-0.1,0.69-0.18l0.24,0.97c-0.27,0.11-0.61,0.21-1.01,0.28
				c-0.4,0.07-0.75,0.11-1.04,0.11c-0.68,0-1.22-0.21-1.63-0.62c-0.41-0.41-0.62-0.96-0.62-1.65V62.28z"/>
			<path class="st0" d="M313.77,80.16c-2.67,0-4.01-1.85-4.01-5.56v-7.25h1.21v7.08c0,3.09,1.06,4.64,3.17,4.64
				c0.53,0,1.05-0.09,1.55-0.28c0.5-0.18,0.97-0.44,1.4-0.77c0.44-0.33,0.82-0.73,1.15-1.2c0.33-0.47,0.59-0.98,0.79-1.55v-7.93
				h1.21v10.88c0,0.4,0.17,0.6,0.51,0.6v1.09c-0.08,0.02-0.15,0.02-0.22,0.02c-0.07,0-0.11,0-0.15,0c-0.32,0-0.61-0.1-0.86-0.3
				c-0.25-0.2-0.37-0.47-0.37-0.81v-1.88c-0.55,1.01-1.3,1.81-2.26,2.37C315.92,79.88,314.89,80.16,313.77,80.16z"/>
			<path class="st0" d="M329.68,79.32c-0.07,0.03-0.17,0.09-0.33,0.18c-0.15,0.09-0.35,0.17-0.58,0.25
				c-0.23,0.08-0.5,0.15-0.79,0.22c-0.29,0.06-0.6,0.1-0.94,0.1c-0.34,0-0.66-0.05-0.95-0.14c-0.3-0.1-0.56-0.24-0.79-0.44
				s-0.4-0.43-0.53-0.7c-0.13-0.27-0.19-0.6-0.19-0.97v-9.47h-1.77v-0.99h1.77v-4.3h1.21v4.3h2.92v0.99h-2.92v9.18
				c0,0.47,0.16,0.82,0.48,1.05c0.32,0.23,0.68,0.35,1.09,0.35c0.5,0,0.93-0.08,1.29-0.25s0.58-0.28,0.67-0.33L329.68,79.32z"/>
			<path class="st0" d="M331.8,64.5v-2.22h1.21v2.22H331.8z M331.8,79.92V67.35h1.21v12.57H331.8z"/>
			<path class="st0" d="M342.07,80.16c-0.89,0-1.7-0.17-2.45-0.52c-0.75-0.35-1.4-0.82-1.95-1.41c-0.55-0.6-0.97-1.29-1.28-2.08
				c-0.31-0.79-0.46-1.62-0.46-2.49c0-0.89,0.16-1.72,0.47-2.51c0.31-0.79,0.75-1.48,1.29-2.08c0.55-0.6,1.2-1.07,1.95-1.41
				c0.75-0.35,1.56-0.52,2.43-0.52c0.87,0,1.68,0.17,2.42,0.52c0.74,0.35,1.39,0.82,1.95,1.41c0.56,0.6,0.99,1.29,1.31,2.08
				c0.31,0.79,0.47,1.63,0.47,2.51c0,0.87-0.16,1.7-0.47,2.49c-0.31,0.79-0.75,1.48-1.29,2.08c-0.55,0.6-1.2,1.07-1.95,1.41
				C343.75,79.99,342.94,80.16,342.07,80.16z M337.14,73.71c0,0.74,0.13,1.44,0.39,2.09c0.26,0.65,0.61,1.22,1.05,1.7
				c0.44,0.48,0.96,0.87,1.56,1.15c0.6,0.28,1.23,0.42,1.91,0.42c0.68,0,1.31-0.14,1.91-0.42c0.6-0.28,1.12-0.67,1.57-1.17
				c0.45-0.5,0.81-1.08,1.06-1.73c0.26-0.65,0.39-1.36,0.39-2.11c0-0.74-0.13-1.44-0.39-2.09c-0.26-0.65-0.61-1.22-1.06-1.72
				c-0.45-0.49-0.97-0.88-1.56-1.17c-0.59-0.29-1.22-0.44-1.9-0.44c-0.68,0-1.31,0.15-1.91,0.44c-0.6,0.29-1.12,0.68-1.56,1.18
				c-0.44,0.5-0.8,1.08-1.06,1.75C337.28,72.27,337.14,72.97,337.14,73.71z"/>
			<path class="st0" d="M361.39,79.92h-1.21v-7.01c0-1.63-0.23-2.81-0.69-3.55c-0.46-0.74-1.19-1.11-2.19-1.11
				c-0.53,0-1.06,0.1-1.58,0.29c-0.52,0.19-1.01,0.47-1.46,0.82c-0.45,0.35-0.85,0.77-1.18,1.24c-0.34,0.48-0.59,0.99-0.75,1.54
				v7.78h-1.21V67.35h1.14v3c0.26-0.48,0.58-0.92,0.95-1.32s0.81-0.73,1.28-1.02c0.47-0.28,0.98-0.5,1.51-0.65
				c0.53-0.15,1.08-0.23,1.64-0.23c1.37,0,2.34,0.48,2.9,1.44c0.56,0.96,0.85,2.33,0.85,4.12V79.92z"/>
			<path class="st0" d="M364.77,79.92v-2.05h1.06v2.05H364.77z"/>
			<path class="st0" d="M372.41,80.16c-0.58,0-1.12-0.1-1.62-0.3c-0.5-0.2-0.94-0.48-1.32-0.82c-0.38-0.35-0.67-0.76-0.88-1.23
				c-0.21-0.48-0.31-0.99-0.31-1.54c0-0.55,0.13-1.05,0.39-1.5c0.26-0.45,0.62-0.84,1.08-1.17c0.46-0.33,1.01-0.59,1.66-0.77
				c0.64-0.18,1.35-0.28,2.13-0.28c0.68,0,1.36,0.06,2.04,0.18c0.69,0.12,1.3,0.29,1.85,0.5V72c0-1.19-0.34-2.14-1.02-2.84
				c-0.68-0.7-1.59-1.05-2.75-1.05c-0.61,0-1.26,0.13-1.95,0.39c-0.69,0.26-1.38,0.63-2.09,1.11l-0.46-0.82
				c1.61-1.1,3.14-1.64,4.59-1.64c1.51,0,2.71,0.44,3.58,1.32c0.87,0.88,1.31,2.09,1.31,3.64v6.14c0,0.4,0.18,0.6,0.53,0.6v1.09
				c-0.08,0.02-0.17,0.03-0.25,0.04c-0.09,0.01-0.17,0.01-0.23,0.01c-0.32,0-0.58-0.11-0.77-0.33c-0.19-0.22-0.31-0.48-0.34-0.79
				v-1.04c-0.58,0.76-1.32,1.34-2.22,1.74C374.43,79.96,373.45,80.16,372.41,80.16z M372.65,79.2c0.93,0,1.79-0.18,2.57-0.53
				c0.78-0.35,1.38-0.82,1.8-1.4c0.26-0.34,0.39-0.66,0.39-0.97v-2.22c-0.58-0.23-1.18-0.39-1.81-0.51
				c-0.63-0.11-1.28-0.17-1.96-0.17c-0.63,0-1.2,0.07-1.72,0.21c-0.52,0.14-0.96,0.33-1.33,0.57s-0.66,0.54-0.86,0.88
				c-0.2,0.35-0.3,0.73-0.3,1.15c0,0.42,0.08,0.81,0.24,1.18c0.16,0.37,0.39,0.69,0.68,0.95c0.29,0.27,0.63,0.48,1.03,0.63
				C371.77,79.12,372.2,79.2,372.65,79.2z"/>
			<path class="st0" d="M382.39,62.28h1.23v15.15c0,0.47,0.13,0.84,0.4,1.11c0.27,0.27,0.63,0.41,1.1,0.41
				c0.18,0,0.39-0.02,0.64-0.06c0.25-0.04,0.48-0.1,0.69-0.18l0.24,0.97c-0.27,0.11-0.61,0.21-1.01,0.28
				c-0.4,0.07-0.75,0.11-1.04,0.11c-0.68,0-1.22-0.21-1.63-0.62c-0.41-0.41-0.62-0.96-0.62-1.65V62.28z"/>
		</g>
	</g>
</g>
</svg>
