<?xml version="1.0" encoding="utf-8"?>
<!-- Generator: Adobe Illustrator 27.3.1, SVG Export Plug-In . SVG Version: 6.00 Build 0)  -->
<svg version="1.1" id="Layer_1" xmlns="http://www.w3.org/2000/svg" xmlns:xlink="http://www.w3.org/1999/xlink" x="0px" y="0px"
	 viewBox="0 0 500 500" style="enable-background:new 0 0 500 500;" xml:space="preserve">
<style type="text/css">
	.st0{fill:#9B9B9B;}
</style>
<g>
	<g>
		<path class="st0" d="M401.67,500c-11.64,0-21.11-9.46-21.11-21.1c0-11.64,9.47-21.11,21.11-21.11h56.12v-98.87H300.31
			c-11.64,0-21.1-9.46-21.1-21.1c0-11.64,9.47-21.11,21.1-21.11h157.48V42.22H321.42v87.36h80.25c11.64,0,21.11,9.47,21.11,21.11
			c0,11.64-9.47,21.1-21.11,21.1H300.31c-11.64,0-21.1-9.47-21.1-21.1V42.22H42.22v173.04h110.62v-78.1
			c0-11.64,9.47-21.11,21.11-21.11c11.64,0,21.11,9.47,21.11,21.11v200.67c0,11.63-9.47,21.1-21.11,21.1
			c-11.64,0-21.11-9.46-21.11-21.1v-80.36H42.22v200.32h258.09c11.64,0,21.11,9.47,21.11,21.11S311.95,500,300.31,500H21.11
			c-11.64,0-21.11-9.47-21.11-21.11V21.11C0.01,9.47,9.48,0,21.11,0H478.9c11.63,0,21.1,9.47,21.1,21.11V478.9
			c0,11.63-9.46,21.1-21.1,21.1H401.67z"/>
		<path class="st0" d="M401.67,498.02c-10.54,0-19.12-8.57-19.12-19.11c0-10.55,8.58-19.13,19.12-19.13h58.11V356.93H300.31
			c-10.54,0-19.12-8.57-19.12-19.11c0-10.55,8.58-19.13,19.12-19.13h159.46V40.23H319.44v91.33h82.23
			c10.55,0,19.13,8.58,19.13,19.12c0,10.54-8.58,19.12-19.13,19.12H300.31c-10.54,0-19.12-8.58-19.12-19.12V40.23H40.24v177h114.59
			v-80.08c0-10.55,8.58-19.12,19.13-19.12c10.55,0,19.12,8.58,19.12,19.12v200.67c0,10.54-8.58,19.11-19.12,19.11
			c-10.55,0-19.13-8.57-19.13-19.11v-82.34H40.24v204.29h260.07c10.54,0,19.12,8.58,19.12,19.12c0,10.55-8.58,19.13-19.12,19.13
			H21.11c-10.55,0-19.12-8.58-19.12-19.13V21.11c0-10.55,8.58-19.12,19.12-19.12H478.9c10.54,0,19.11,8.58,19.11,19.12V478.9
			c0,10.54-8.57,19.11-19.11,19.11H401.67z"/>
		<path class="st0" d="M401.67,490.46c-6.38,0-11.57-5.19-11.57-11.56c0-6.38,5.19-11.57,11.57-11.57h65.66V349.38H300.31
			c-6.37,0-11.56-5.19-11.56-11.56c0-6.38,5.19-11.57,11.56-11.57h167.02V32.68H311.88v106.44h89.78c6.38,0,11.57,5.19,11.57,11.57
			c0,6.38-5.19,11.56-11.57,11.56H300.31c-6.37,0-11.56-5.19-11.56-11.56V32.68H32.68v192.11h129.7v-87.64
			c0-6.38,5.19-11.57,11.57-11.57c6.38,0,11.57,5.19,11.57,11.57v200.67c0,6.37-5.19,11.56-11.57,11.56
			c-6.38,0-11.57-5.19-11.57-11.56v-89.9H32.68v219.4h267.63c6.38,0,11.57,5.19,11.57,11.57c0,6.38-5.19,11.57-11.57,11.57H21.11
			c-6.38,0-11.57-5.19-11.57-11.57V21.11c0-6.38,5.19-11.57,11.57-11.57H478.9c6.37,0,11.56,5.19,11.56,11.57V478.9
			c0,6.37-5.19,11.56-11.56,11.56H401.67z"/>
		<path class="st0" d="M478.9,11.52H21.11c-5.3,0-9.59,4.28-9.59,9.59v457.78c0,5.29,4.29,9.59,9.59,9.59h279.2
			c5.3,0,9.59-4.3,9.59-9.59c0-5.29-4.29-9.59-9.59-9.59H30.7V245.94h133.66v91.88c0,5.29,4.3,9.58,9.59,9.58
			c5.29,0,9.59-4.29,9.59-9.58V137.15c0-5.3-4.3-9.59-9.59-9.59c-5.29,0-9.59,4.29-9.59,9.59v89.62H30.7V30.69h260.03v119.99
			c0,5.29,4.29,9.58,9.58,9.58h101.35c5.29,0,9.59-4.29,9.59-9.58c0-5.3-4.3-9.59-9.59-9.59H309.9V30.69h159.41v297.54h-169
			c-5.29,0-9.58,4.29-9.58,9.59c0,5.29,4.29,9.58,9.58,9.58h169v121.92h-67.65c-5.29,0-9.59,4.28-9.59,9.59
			c0,5.29,4.3,9.58,9.59,9.58h77.23c5.29,0,9.58-4.29,9.58-9.58V21.11C488.47,15.81,484.19,11.52,478.9,11.52L478.9,11.52z
			 M478.9,11.52"/>
	</g>
</g>
</svg>
