<?xml version="1.0" encoding="utf-8"?>
<!-- Generator: Adobe Illustrator 27.3.1, SVG Export Plug-In . SVG Version: 6.00 Build 0)  -->
<svg version="1.1" id="Layer_1" xmlns="http://www.w3.org/2000/svg" xmlns:xlink="http://www.w3.org/1999/xlink" x="0px" y="0px"
	 viewBox="0 0 100 100" style="enable-background:new 0 0 100 100;" xml:space="preserve">
<style type="text/css">
	.st0{fill:url(#SVGID_1_);}
</style>
<g>
	<linearGradient id="SVGID_1_" gradientUnits="userSpaceOnUse" x1="47.8564" y1="160.9253" x2="52.8499" y2="-97.4839">
		<stop  offset="0" style="stop-color:#FFE35F"/>
		<stop  offset="0" style="stop-color:#DE9F17"/>
		<stop  offset="0.3198" style="stop-color:#CF9A15"/>
		<stop  offset="0.6802" style="stop-color:#FFF68A"/>
		<stop  offset="1" style="stop-color:#FFCF45"/>
	</linearGradient>
	<path class="st0" d="M3.6,99.6c-1,0-1.5-0.6-1.5-1.7s0.5-2,1.5-2.6C5,94.5,6.2,92.6,7,89.8s1.4-6.7,1.8-11.7
		c0.3-5,0.5-9.3,0.6-13.1c0.1-3.8,0.1-8.8,0.1-15c0-17.7-0.4-28.9-1.1-33.9C7.6,9.9,6,6.1,3.6,4.7C2.7,4.1,2.2,3.3,2.2,2.1
		c0-1.1,0.4-1.7,1.5-1.7h36c1,0,1.6,0.6,1.6,1.7s-0.5,2-1.6,2.6c-1.4,0.8-2.5,2.6-3.4,5.2c-0.8,2.6-1.4,6.4-1.8,11.2
		c-0.3,4.8-0.5,8.9-0.6,12.3s-0.1,8.2-0.1,14.5h32.6c0-0.8,0-1.8,0-3.3c0-5.9,0-10.5-0.1-13.6c0-3.1-0.2-6.9-0.6-11.3
		c-0.3-4.4-0.9-7.8-1.8-10.2c-0.9-2.4-2.1-4-3.5-4.9C59.5,4,59,3.2,58.9,2c0-1.1,0.4-1.7,1.5-1.7h36c1,0,1.6,0.6,1.6,1.7
		s-0.5,2-1.6,2.6c-1.5,0.9-2.7,2.7-3.5,5.4c-0.8,2.6-1.4,6.7-1.8,12.2c-0.3,5.5-0.5,9.7-0.6,12.5c0,2.9-0.1,8-0.1,15.2
		c0,17.7,0.4,28.9,1.1,33.9c0.9,6.2,2.5,10.1,4.8,11.5c0.9,0.6,1.4,1.4,1.5,2.6c0,1.1-0.5,1.7-1.5,1.7h-36c-1,0-1.5-0.6-1.5-1.7
		s0.5-2,1.5-2.6c2.5-1.5,4.1-6,4.8-13.6c0.8-7.6,1.1-17.4,1.1-29.6H33.7c0,0.8,0,1.8,0,3.3c0,5.9,0,10.5,0.1,13.6
		c0,3.1,0.2,6.9,0.6,11.3c0.3,4.4,0.9,7.8,1.8,10.2c0.9,2.4,2.1,4,3.5,4.9c0.9,0.6,1.4,1.4,1.5,2.6c0,1.1-0.4,1.7-1.5,1.7H3.6V99.6z
		"/>
</g>
</svg>
